<svg xmlns="http://www.w3.org/2000/svg" viewBox="0 0 32 32" style="width: 100%; height: 100%; fill: currentColor;"><path d="M26.162 24.491c-0 0-0 0-0.001 0-1.857 0-3.363 1.506-3.363 3.363s1.505 3.362 3.362 3.363h0.001c1.857 0 3.363-1.506 3.363-3.363s-1.506-3.363-3.363-3.363v0zM26.158 26.113c0 0 0 0 0.001 0 0.961 0 1.741 0.779 1.741 1.741s-0.779 1.741-1.741 1.741c-0.961 0-1.741-0.779-1.741-1.741v0c0.001-0.961 0.779-1.739 1.74-1.741h0z"></path><path d="M11.123 18.198h15.249c0.002 0 0.003 0 0.005 0 1.656 0 3.047-1.136 3.437-2.67l0.005-0.025 2.157-8.752c0.015-0.058 0.024-0.125 0.024-0.194 0-0.379-0.261-0.698-0.612-0.786l-0.006-0.001c-0.058-0.015-0.124-0.023-0.193-0.023h-23.47l-0.723-3.027c-0.273-1.119-1.266-1.936-2.451-1.936-0.003 0-0.006 0-0.009 0h-3.726c-0.448 0-0.811 0.363-0.811 0.811s0.363 0.811 0.811 0.811v0h3.727c0.001 0 0.002 0 0.003 0 0.423 0 0.777 0.292 0.873 0.685l0.001 0.006 3.46 14.43 0.003 0.007c-0.53 0.553-0.857 1.305-0.857 2.134 0 1.704 1.381 3.085 3.085 3.085 0 0 0 0 0 0h18.395c0.448 0 0.811-0.363 0.811-0.811s-0.363-0.811-0.811-0.811v0h-18.378c-0.808-0.002-1.463-0.658-1.463-1.466s0.655-1.465 1.463-1.466h0zM30.149 7.369l-1.911 7.745c-0.214 0.848-0.97 1.466-1.87 1.466-0.001 0-0.002 0-0.003 0h-16.052l-2.207-9.211z"></path><path d="M11.157 24.491c-0 0-0 0-0 0-1.857 0-3.363 1.506-3.363 3.363s1.505 3.363 3.362 3.363h0.001c1.857-0 3.362-1.506 3.362-3.363s-1.506-3.363-3.363-3.363c-0 0-0 0-0 0v0zM11.154 26.113c0 0 0 0 0 0 0.961 0 1.741 0.779 1.741 1.741s-0.779 1.741-1.741 1.741c-0.961 0-1.741-0.779-1.741-1.741v0c0.001-0.961 0.78-1.74 1.74-1.741h0z"></path></svg>